<svg
   viewBox="0 0 1200 432"
   width="1200"
   height="432"
   version="1.1"
   xmlns="http://www.w3.org/2000/svg"
   xmlns:svg="http://www.w3.org/2000/svg">
  <path
     style="display:inline;fill:#000000;fill-opacity:1"
     d="m 1070.1964,6.8630825 c -12.25,-0.55 -22.34,5.2200105 -30.75,13.2500005 -8.41,8.01999 -12.6905,15.87954 -18.4805,25.51953 -5.79,9.63999 -9.89,19.25001 -14,30 -4.11,10.74999 -8.91908,21.62095 -11.78908,33.210937 -2.88,11.57999 -6.69047,22.83954 -8.98047,35.01953 -2.3,12.17999 -5.04031,25.0097 -6.07031,37.92969 -1.04,12.90998 -5.66969,25.35032 -4.92969,39.07031 0.74,13.71999 -4.36993,20.90009 -14.91992,30.08008 -10.54999,9.17999 -23.02008,4.59991 -22.08008,-10.08008 0.94,-14.67999 2.22993,-24.66009 5.66992,-38.33008 3.44,-13.66998 3.18001,-22.81001 7,-37 3.82,-14.18998 -13.82923,-21.11921 -25.44922,-15.44922 -11.60999,5.68 -12.91023,18.19978 -15.24023,29.75977 -2.34,11.55999 -7.37047,24.58954 -6.98047,37.01953 0.39,12.42999 -4.48001,22.60001 -13.25,30.75 -8.76999,8.14999 -23.64,13.93999 -24.75,-0.75 -1.11,-14.68999 3.53953,-24.44048 6.01953,-37.98047 2.49,-13.52999 4.39047,-24.92954 5.98047,-39.01953 1.59,-14.08999 -10.19025,-23.07023 -22.99023,-20.99023 -12.79999,2.06999 -20.14978,7.24024 -29.25977,14.74023 -9.10999,7.50999 -13.27001,15.47001 -19.5,24.5 -6.21999,9.02999 -11.18,19.41001 -14.25,29.75 -1.69,-10.68999 3.82977,-26.43024 6.00977,-36.99023 2.17999,-10.56999 10.74022,-29.54977 -3.00977,-32.00977 -13.74999,-2.46 -24.77032,4.2397 -29.07031,15.92969 -4.31,11.67999 -5.49969,23.23032 -8.92969,35.07031 -7.73999,0.48 -14.94001,2.87 -23,2 -0.86,-13.45999 -5.94001,-25.97001 -14.75,-36.25 -8.80999,-10.27999 -19.96001,-15.69 -33.25,-16.75 -13.28999,-1.06 -29.91001,2.84001 -40.25,10.75 -10.34999,7.90999 -17.69008,15.14993 -22.83008,27.16992 -5.12999,12.02999 -11.13992,28.08009 -8.91992,42.08008 2.22,13.99999 -8.98001,21.43001 -21,27 2.53,-13.65999 -3.22001,-24.59001 -9.75,-35.25 -6.51999,-10.66999 -12.69946,-14.59056 -18.93945,-26.06055 -6.25,-11.45999 -2.80086,-21.33978 4.36914,-34.00976 7.15999,-12.67999 -12.66923,-18.82922 -24.44922,-13.44922 -11.77999,5.37999 -14.40993,15.29009 -18.91992,26.08008 -4.52,10.77999 -9.66102,19.75899 -14.54102,30.45898 -4.87999,10.69999 -11.09961,16.9704 -17.84961,27.15039 -6.75999,10.16999 -13.25024,13.61978 -18.99023,26.00977 -5.74,12.38999 12.63032,22.5803 21.32031,12.32031 8.68999,-10.25999 14.06001,-14.15001 21,-24 6.92999,-9.85999 12.43,-16.44001 16.75,-27.25 11.00999,8.88999 20.02,23.32001 21,38 -13.42999,-3.77 -36.27953,-3.40951 -39.01953,13.98047 -2.75,17.37998 12.33955,25.57953 28.01953,27.01953 15.67998,1.44 30.80048,-10.73953 45.98047,-11.01953 15.16998,-0.29 26.15954,-10.47048 38.01953,-17.98047 29.82997,44.98996 100.94,14.76995 105,-34 7.89999,0.29 15.64001,-0.21 23,-2 -1.76,14.96999 1.2993,31.40048 4.0293,44.98047 2.71999,13.56999 23.00071,18.12952 30.7207,7.76953 7.70999,-10.36999 8.57032,-24.1497 12.32031,-35.67969 3.75,-11.52999 10.68977,-23.24024 15.00977,-33.99023 4.30999,-10.75999 20.03015,-27.28983 19.91015,-11.08985 -0.12,16.19999 -5.96,26.30002 -7,41 -1.02999,14.69999 -2.05022,28.01978 8.75977,38.25977 10.80999,10.23999 27.25032,7.18031 39.57031,4.07031 12.31999,-3.10999 19.9997,-10.60032 29.67969,-18.32031 9.46999,29.17997 49.30002,24.56998 67,6 -1.64,24.61998 4.84993,53.7501 8.66992,76.33008 3.83,22.56998 26.36093,42.91069 47.63093,27.9707 21.28,-14.93998 20.9392,-38.9908 21.6992,-63.30078 0.76,-24.30998 -4.55,-53.19002 -8,-77 10.84,2.69 22.5,1.95 34,2 -3,19.87998 7.4599,47.25031 28.9199,49.07031 21.46,1.82 33.4001,-19.87033 39.0801,-37.07031 -0.93,8.80999 0.7,26.01001 -5.75,33.25 -6.46,7.22999 -15.49,11.72001 -22.5,18.5 -7.01,6.77999 -14.01,12.73001 -21,20 -6.99,7.27999 -13.1505,13.75954 -18.9805,22.01953 -5.83,8.25999 -10.6302,17.98978 -12.9902,28.00977 -2.36,10.01999 -4.5193,24.67071 1.4707,33.9707 5.98,9.30999 14.1,14.97 24.75,16.25 10.65,1.28 24.6,-1.39001 32.75,-8.25 8.15,-6.85999 13.3505,-13.58954 18.4805,-22.51953 5.13,-8.92999 9.1488,-18.24095 12.7988,-28.21094 3.64,-9.95999 6.8205,-20.40977 9.9805,-31.00976 3.16,-10.60999 4.7009,-22.58908 7.2109,-33.78907 2.51,-11.18999 4.6092,-22.86079 6.4492,-34.55078 1.85,-11.68999 3.3296,-23.7604 5.3496,-35.65039 2.02,-11.87999 3.69,-22.83001 6,-35 2.32,-12.15999 3.3404,-22.47962 5.6504,-35.34961 2.31,-12.86999 -16.8299,-15.34991 -25.9199,-8.91992 -9.1,6.42999 -9.8303,17.9197 -12.8203,28.17969 -3,10.24999 -7.2092,19.49079 -10.9492,30.05078 -3.75,10.54999 -8.0805,16.54954 -13.7305,27.26953 -5.65,10.71999 -19.9893,11.64069 -18.0293,-3.0293 1.96,-14.65998 1.9692,-22.11079 5.4492,-35.55078 3.48,-13.43998 2.5704,-19.89962 7.4004,-33.59961 4.84,-13.69998 -7.5705,-18.49054 -20.0605,-15.06054 -12.5,3.42999 -14.9905,11.53954 -18.2305,22.76953 -3.25,11.22999 -6.4393,21.55071 -7.7793,33.2207 -12.69,2.37 -29.5,1.76 -42,1 -12.5,-0.76 -19.9207,11.58931 -21.2207,22.7793 -1.3,11.17999 5.9305,23.67095 6.2305,36.21093 0.3,12.53999 6.0502,25.30978 4.9902,39.00977 -1.06,13.69999 3.4993,28.88931 -2.2207,42.7793 -5.73,13.87998 -14.1093,-4.74931 -12.7793,-16.7793 1.33,-12.02999 -2.97,-29.25001 -2,-42 0.97,-12.74999 -1.47,-31.59001 0,-44 1.47,-12.40999 -1.75,-29.89001 4.25,-39.75 6,-9.85999 15.89,-13.80001 22,-23 6.1,-9.19999 13.6901,-15.04993 19.8301,-24.16992 6.15,-9.11999 11.6899,-17.00009 17.1699,-26.83008 5.47,-9.83999 10.2897,-18.58032 14.4297,-29.57031 4.14,-10.999987 6.6801,-23.459937 8.3301,-35.669917 1.65,-12.20999 0.8205,-28.17009 -3.6895,-39.33008 -4.51,-11.16999 -12.0703,-19.1296905 -24.3203,-19.6796905 z M 149.40924,34.822063 c -24.78653,0.21844 -51.456187,7.06525 -70.513668,19.74024 C 53.475597,71.452283 39.026261,88.503033 25.116275,115.783 11.216289,143.07297 5.7663513,179.47311 4.1963529,210.86308 c -1.5699984,31.38997 3.8600199,68.22002 23.7500001,91.25 19.89998,23.01998 61.560092,29.17005 77.330077,0.83008 15.75998,-28.34997 11.13993,-64.56011 19.91992,-95.08008 30.23997,-2.61 60.80002,-11.33002 83.75,-32.25 22.94998,-20.91998 33.98968,-55.52972 26.17969,-85.679687 -7.81999,-30.13997 -31.93019,-47.36985 -61.91016,-53.08984 -7.49249,-1.43 -15.54446,-2.0943 -23.80664,-2.02149 z m 911.39846,3.625 c 5.5458,-1.04156 10.9037,7.70103 9.3887,16.41602 -2.02,11.61999 -2.1597,23.66032 -5.9297,34.07031 -3.76,10.40999 -6.2402,19.679777 -10.9902,29.009767 -4.75,9.31999 -9.3096,16.7804 -14.8496,25.15039 -5.54,8.36999 -11.4205,14.71954 -17.2305,22.76953 0.69,-9.90999 2.62,-21.26001 5,-32 2.37,-10.73999 5.0897,-21.19032 7.9297,-32.07031 2.84,-10.889987 5.1108,-19.859227 9.0508,-30.949217 3.93,-11.09999 5.7095,-16.18048 12.2695,-27.73047 1.6425,-2.885 3.5127,-4.31883 5.3613,-4.66602 z m -920.61135,29.41602 c 14.86999,0.22 29.78001,3.40001 40.75,14.25 10.97999,10.83999 12.49976,28.269777 10.25977,42.759767 -2.25,14.47998 -7.45025,26.58977 -19.24024,35.75976 -11.78999,9.16999 -25.76955,14.32047 -40.76953,15.23047 3.1,-22.37998 8.72008,-41.62994 10.33008,-64.66992 1.61,-23.039977 -38.69016,-21.290127 -41.660155,0.33984 -2.959997,21.63998 -9.039925,42.5601 -11.669922,64.33008 -11.709988,-2 -28.68047,-3.29045 -29.980469,12.01953 -1.289998,15.30999 13.290481,17.89047 24.980469,18.98047 -1.879998,13.34999 -7.550079,33.80993 -8.330078,46.66992 -0.779999,12.85999 -7.059935,37.17007 -20.419922,26.08008 -13.359987,-11.08999 -11.830003,-24.66002 -15.25,-39.75 -3.419997,-15.08998 -1.359999,-36.70002 0,-52 1.359999,-15.29998 5.720318,-30.9097 10.320312,-44.67969 4.609996,-13.76998 10.109696,-25.15032 18.429688,-36.57031 8.329992,-11.409987 15.900012,-19.380007 28,-26.999997 12.089987,-7.62999 29.380007,-11.97 44.249997,-11.75 z m 805.55273,13.60547 c -17.5019,0.25571 -33.78944,14.90251 -28.5332,32.374997 5.81,19.26998 31.18048,20.04952 45.23047,8.26953 14.04999,-11.77999 7.75998,-37.159997 -11.25,-40.249997 -1.81406,-0.29438 -3.63672,-0.42098 -5.44727,-0.39453 z m -650.3164,67.078117 c -19.85902,-0.37311 -42.05118,10.59159 -52.93555,26.61719 -19.34998,28.49997 -25.39075,77.14924 5.44922,100.94922 30.84997,23.78998 75.37003,14.87998 104.25,-7.25 -0.21,10.96999 7.43048,21.85047 18.98047,21.98047 11.53999,0.12 18.49906,-10.64095 20.03906,-20.96094 1.55,-10.30999 6.75016,-21.77985 9.66016,-31.33984 2.89999,-9.55999 9.75039,-19.19962 13.40039,-27.59961 3.65999,-8.39999 17.24992,-21.92007 17.91992,-9.08008 0.67,12.83999 -3.61999,24.03001 5.75,33.25 9.37999,9.21999 20.67954,6.53953 30.01953,0.51953 9.33999,-6.01999 13.51118,-13.56884 17.45117,-23.54883 3.94,-9.97999 -4.96071,-24.7107 -17.2207,-22.2207 2.06,-11.55999 7.38046,-30.90048 -4.76953,-38.23047 -12.14999,-7.32999 -26.59048,0.0905 -36.48047,6.98047 -9.88999,6.88999 -16.54923,16.05079 -23.44922,25.55078 -6.88999,9.50999 -11.92078,21.91923 -16.30078,32.69922 -1.73,-19.52998 7.99031,-35.81971 10.07031,-55.92969 2.09,-20.10998 -33.29102,-13.44099 -36.29101,4.70899 -3.01,18.13998 -11.9893,36.93072 -10.7793,56.2207 1.21,19.28998 -19.47931,26.18071 -33.7793,33.2207 -14.28998,7.04 -39.63071,7.86928 -48.2207,-9.2207 33.26997,-3.48 77.10991,-34.16996 62.91992,-72.91992 -6.20374,-16.95748 -20.23769,-24.10628 -35.68359,-24.39649 z m -7.78125,30.26368 c 9.98858,0.33 17.80788,12.94071 9.77539,23.2832 -10.70999,13.78998 -19.07049,15.80953 -34.23047,20.76953 1.62,-16.44998 1.02001,-27.12001 14.25,-39.75 3.305,-3.1575 6.87555,-4.41273 10.20508,-4.30273 z m 392.54492,2.05273 c -0.5,12.09999 -1.94999,29.75001 9.25,38.75 11.20999,8.98999 8.63999,20.94001 -1,31.5 -9.64999,10.54999 -25.72993,8.00991 -32.16992,-4.33008 -6.44,-12.33999 -5.82078,-29.25064 -2.30078,-42.14062 3.50999,-12.88999 11.79071,-24.1493 26.2207,-23.7793 z m 455.00005,141 c -2.93,13.43999 -4.7793,22.96072 -9.7793,36.2207 -4.99,13.26999 -5.3207,18.76931 -15.4707,31.5293 -10.14,12.76999 -21.6203,-2.09033 -15.8203,-14.82031 5.8,-12.73999 8.5303,-20.0497 17.3203,-29.67969 8.79,-9.62999 13.8,-15.59001 23.75,-23.25 z" />
</svg>
